<mxfile host="app.diagrams.net" modified="2024-02-28T11:32:58.977Z" agent="Mozilla/5.0 (Windows NT 10.0; Win64; x64) AppleWebKit/537.36 (KHTML, like Gecko) Chrome/122.0.0.0 Safari/537.36" etag="corJ19hs8rWoyLQeBy9y" version="23.1.7" type="device">
  <diagram name="Trang-1" id="hNqQTS7J7CdDhfaNjrzb">
    <mxGraphModel dx="1974" dy="618" grid="1" gridSize="10" guides="1" tooltips="1" connect="1" arrows="1" fold="1" page="1" pageScale="1" pageWidth="827" pageHeight="1169" math="0" shadow="0">
      <root>
        <mxCell id="0" />
        <mxCell id="1" parent="0" />
        <mxCell id="b5wDwViEvzbuJYWVJBbI-2" value="Admin&lt;div&gt;&lt;br/&gt;&lt;/div&gt;" style="shape=umlActor;verticalLabelPosition=bottom;verticalAlign=top;html=1;" vertex="1" parent="1">
          <mxGeometry x="-140" y="180" width="40" height="60" as="geometry" />
        </mxCell>
        <mxCell id="b5wDwViEvzbuJYWVJBbI-8" value="User" style="shape=umlActor;verticalLabelPosition=bottom;verticalAlign=top;html=1;" vertex="1" parent="1">
          <mxGeometry x="950" y="210" width="30" height="60" as="geometry" />
        </mxCell>
        <mxCell id="b5wDwViEvzbuJYWVJBbI-12" value="Đăng Nhập" style="ellipse;whiteSpace=wrap;html=1;" vertex="1" parent="1">
          <mxGeometry x="-30" y="170" width="130" height="60" as="geometry" />
        </mxCell>
        <mxCell id="b5wDwViEvzbuJYWVJBbI-17" value="" style="endArrow=none;html=1;rounded=0;exitX=1;exitY=0.3333333333333333;exitDx=0;exitDy=0;exitPerimeter=0;entryX=0;entryY=0.5;entryDx=0;entryDy=0;" edge="1" parent="1" source="b5wDwViEvzbuJYWVJBbI-2" target="b5wDwViEvzbuJYWVJBbI-12">
          <mxGeometry width="50" height="50" relative="1" as="geometry">
            <mxPoint x="270" y="250" as="sourcePoint" />
            <mxPoint y="200" as="targetPoint" />
          </mxGeometry>
        </mxCell>
      </root>
    </mxGraphModel>
  </diagram>
</mxfile>
